# xmcd
#
# Track frame offsets: 
#        150
#        13132
#        32479
#        54015
#        75800
#        97633
#        113060
#        138901
#        156464
#
# Disc length: 2226 seconds
#
# Revision: 0
# Processed by: cddbd v1.5.2PL0 Copyright (c) Steve Scherf et al.
# Submitted via: ExactAudioCopy v0.95b4
#
DISCID=5608b009
DTITLE=F.O.D. - Last Train To J'uille
DYEAR=2007
DGENRE=Blues
TTITLE0=Nobody's Dirty Business
TTITLE1=Are You Lonely For Me
TTITLE2=When The Time Is Right
TTITLE3=Midnight Train
TTITLE4=Heavy Love
TTITLE5=Many Of Many Words
TTITLE6=Mastercharge
TTITLE7=25 Miles
TTITLE8=Grinning In Your Face
EXTD=
EXTT0=
EXTT1=
EXTT2=
EXTT3=
EXTT4=
EXTT5=
EXTT6=
EXTT7=
EXTT8=
PLAYORDER=
